<?xml version="1.0" encoding="utf-8"?>
<!-- Generator: Adobe Illustrator 17.0.0, SVG Export Plug-In . SVG Version: 6.00 Build 0)  -->
<!DOCTYPE svg PUBLIC "-//W3C//DTD SVG 1.1//EN" "http://www.w3.org/Graphics/SVG/1.1/DTD/svg11.dtd">
<svg version="1.1" id="Layer_1" xmlns="http://www.w3.org/2000/svg" xmlns:xlink="http://www.w3.org/1999/xlink" x="0px" y="0px"
	 width="163.855px" height="165.06px" viewBox="0 0 163.855 165.06" enable-background="new 0 0 163.855 165.06"
	 xml:space="preserve">
<g>
	<path fill="none" stroke="#F9BB18" stroke-width="3" stroke-miterlimit="10" d="M136.073,51.295h-11.919
		c-9.064,0-16.413-7.348-16.413-16.413V22.468"/>
	<path fill="none" stroke="#F9BB18" stroke-width="3" stroke-miterlimit="10" d="M128.747,145.633H42.109
		c-4.649,0-8.417-3.769-8.417-8.417V29.794c0-4.649,3.769-8.417,8.417-8.417h64.173c2.387,0,4.674,0.955,6.352,2.652l21.95,22.2
		c1.653,1.672,2.581,3.929,2.581,6.28v84.706C137.165,141.864,133.396,145.633,128.747,145.633z"/>
	<g>
		
			<line fill="none" stroke="#F9BB18" stroke-width="3" stroke-linecap="round" stroke-miterlimit="10" x1="52.255" y1="47.157" x2="94.589" y2="47.157"/>
		
			<line fill="none" stroke="#F9BB18" stroke-width="3" stroke-linecap="round" stroke-miterlimit="10" x1="52.255" y1="63.633" x2="94.589" y2="63.633"/>
		
			<line fill="none" stroke="#F9BB18" stroke-width="3" stroke-linecap="round" stroke-miterlimit="10" x1="52.255" y1="80.109" x2="119.532" y2="80.109"/>
		
			<line fill="none" stroke="#F9BB18" stroke-width="3" stroke-linecap="round" stroke-miterlimit="10" x1="52.255" y1="98.873" x2="119.532" y2="98.873"/>
		
			<line fill="none" stroke="#F9BB18" stroke-width="3" stroke-linecap="round" stroke-miterlimit="10" x1="52.255" y1="117.637" x2="119.532" y2="117.637"/>
	</g>
</g>
</svg>
