<?xml version="1.0" encoding="utf-8"?>
<!-- Generator: Adobe Illustrator 17.0.0, SVG Export Plug-In . SVG Version: 6.00 Build 0)  -->
<!DOCTYPE svg PUBLIC "-//W3C//DTD SVG 1.1//EN" "http://www.w3.org/Graphics/SVG/1.1/DTD/svg11.dtd">
<svg version="1.1" id="Layer_1" xmlns="http://www.w3.org/2000/svg" xmlns:xlink="http://www.w3.org/1999/xlink" x="0px" y="0px"
	 width="163.855px" height="165.06px" viewBox="0 0 163.855 165.06" enable-background="new 0 0 163.855 165.06"
	 xml:space="preserve">
<g>
	<g>
		<g>
			<g>
				<path fill="none" stroke="#F9BB18" stroke-width="3" stroke-miterlimit="10" d="M48.348,104.899L48.348,104.899l-12.838,2.869
					c-9.591,2.133-19.096-3.905-21.244-13.491h-0.012c-2.137-9.593,3.899-19.1,13.487-21.25l12.852-2.865"/>
				<polyline fill="none" stroke="#F9BB18" stroke-width="3" stroke-miterlimit="10" points="108.075,111.454 57.707,103.276 
					49.425,66.155 91.51,37.283 				"/>
				
					<line fill="none" stroke="#F9BB18" stroke-width="3" stroke-linecap="round" stroke-miterlimit="10" x1="134.226" y1="61.057" x2="157.395" y2="56.099"/>
				
					<line fill="none" stroke="#F9BB18" stroke-width="3" stroke-linecap="round" stroke-miterlimit="10" x1="140.694" y1="94.782" x2="154.746" y2="98.816"/>
				
					<line fill="none" stroke="#F9BB18" stroke-width="3" stroke-linecap="round" stroke-miterlimit="10" x1="125.877" y1="30.004" x2="138.52" y2="20.005"/>
			</g>
		</g>
		
			<line fill="none" stroke="#F9BB18" stroke-width="3" stroke-linecap="round" stroke-miterlimit="10" x1="42.698" y1="118.917" x2="51.057" y2="153.247"/>
	</g>
	<path fill="none" stroke="#F9BB18" stroke-width="3" stroke-miterlimit="10" d="M127.968,125.488L127.968,125.488
		c-2.735,0.621-5.457-1.093-6.078-3.828L98.813,20.021c-0.621-2.735,1.093-5.457,3.828-6.078l0,0
		c2.735-0.621,5.457,1.093,6.078,3.828l23.078,101.638C132.418,122.146,130.704,124.867,127.968,125.488z"/>
</g>
</svg>
