<?xml version="1.0" encoding="utf-8"?>
<!-- Generator: Adobe Illustrator 17.0.0, SVG Export Plug-In . SVG Version: 6.00 Build 0)  -->
<!DOCTYPE svg PUBLIC "-//W3C//DTD SVG 1.1//EN" "http://www.w3.org/Graphics/SVG/1.1/DTD/svg11.dtd">
<svg version="1.1" id="Capa_1" xmlns="http://www.w3.org/2000/svg" xmlns:xlink="http://www.w3.org/1999/xlink" x="0px" y="0px"
	 width="1024px" height="1024px" viewBox="0 0 1024 1024" enable-background="new 0 0 1024 1024" xml:space="preserve">
<path fill="#FFC107" d="M985.685,251.528L511.727,725.53L37.768,251.528c-8.842-8.542-22.935-8.295-31.476,0.547
	c-8.331,8.627-8.331,22.302,0,30.927L496.01,772.721c8.692,8.69,22.782,8.69,31.476,0l489.719-489.719
	c8.842-8.542,9.086-22.632,0.547-31.476c-8.542-8.842-22.632-9.086-31.476-0.547c-0.186,0.179-0.367,0.361-0.547,0.547
	L985.685,251.528z"/>
<path fill="#FFFFFF" d="M511.727,779.267c-5.908,0.01-11.578-2.327-15.76-6.501L6.248,283.048
	c-8.542-8.842-8.295-22.935,0.547-31.476c8.627-8.331,22.302-8.331,30.927,0L511.725,725.53l473.959-474.002
	c8.542-8.842,22.632-9.086,31.476-0.547c8.842,8.542,9.086,22.632,0.547,31.476c-0.179,0.186-0.361,0.367-0.547,0.547
	L527.443,772.723C523.277,776.901,517.624,779.252,511.727,779.267z"/>
</svg>
