<?xml version="1.0" encoding="utf-8"?>
<!-- Generator: Adobe Illustrator 17.0.0, SVG Export Plug-In . SVG Version: 6.00 Build 0)  -->
<!DOCTYPE svg PUBLIC "-//W3C//DTD SVG 1.1//EN" "http://www.w3.org/Graphics/SVG/1.1/DTD/svg11.dtd">
<svg version="1.1" id="Layer_1" xmlns="http://www.w3.org/2000/svg" xmlns:xlink="http://www.w3.org/1999/xlink" x="0px" y="0px"
	 width="163.855px" height="165.06px" viewBox="0 0 163.855 165.06" enable-background="new 0 0 163.855 165.06"
	 xml:space="preserve">
<g>
	<g>
		<g>
			<circle fill="none" stroke="#F9BB18" stroke-width="3" stroke-miterlimit="10" cx="87.903" cy="111.647" r="25.328"/>
			
				<line fill="none" stroke="#F9BB18" stroke-width="3" stroke-linecap="round" stroke-miterlimit="10" x1="104.506" y1="131.813" x2="122.563" y2="156.971"/>
		</g>
	</g>
	<path fill="none" stroke="#F9BB18" stroke-width="3" stroke-miterlimit="10" d="M62.575,111.647H20.403
		c-2.735,0-4.953-2.217-4.953-4.953V14.103c0-2.735,2.217-4.953,4.953-4.953h129.353c2.735,0,4.953,2.217,4.953,4.953v92.591
		c0,2.735-2.217,4.953-4.953,4.953h-36.525"/>
	<line fill="none" stroke="#F9BB18" stroke-width="3" stroke-miterlimit="10" x1="15.928" y1="34.701" x2="155.186" y2="34.701"/>
	<polyline fill="none" stroke="#F9BB18" stroke-width="3" stroke-miterlimit="10" points="35.13,71.713 52.162,78.948 
		68.819,52.494 83.983,71.034 100.791,58.147 115.847,68.773 138.909,49.555 	"/>
	<circle fill="#F9BB18" cx="29.704" cy="21.519" r="2.487"/>
	<circle fill="#F9BB18" cx="42.555" cy="21.519" r="2.487"/>
	<circle fill="#F9BB18" cx="55.406" cy="21.519" r="2.487"/>
</g>
</svg>
